<?xml version="1.0" encoding="UTF-8"?>
<svg id="Layer_2" xmlns="http://www.w3.org/2000/svg" xmlns:xlink="http://www.w3.org/1999/xlink" viewBox="0 0 349.53 69.63">
  <defs>
    <style>
  .cls-1 {
    fill: #ffffff;
  }

  .cls-2 {
    fill: none;
    stroke: #ffffff;
    stroke-miterlimit: 10;
    stroke-width: .25px;
    opacity: 0.5;
  }

  .cls-3 {
    fill: #ffffff;
  }

  .cls-4 {
    fill: url(#linear-gradient);
  }
</style>
    <linearGradient id="linear-gradient" x1="57.57" y1="2.99" x2="53.32" y2="55.67" gradientUnits="userSpaceOnUse">
      <stop offset="0" stop-color="#1ca6bc"/>
      <stop offset="1" stop-color="#2e3192"/>
    </linearGradient>
  </defs>
  <g id="Layer_1-2" data-name="Layer_1">
    <g>
      <path class="cls-3" d="M130.61,68.26v-4.98h1.71c1.16,0,1.7.48,1.7,1.21,0,.46-.24.85-.74.97v.15c.64.11.97.54.97,1.19,0,.87-.58,1.45-1.83,1.45h-1.81ZM131.31,65.31h1.02c.66,0,.98-.23.98-.73s-.32-.73-.98-.73h-1.02v1.45ZM131.31,67.69h1.1c.78,0,1.12-.33,1.12-.92s-.33-.9-1.1-.9h-1.12v1.82Z"/>
      <path class="cls-3" d="M135,66.89v-2.46h.69v2.31c0,.66.23,1.03.73,1.03.63,0,.99-.55.99-1.28v-2.06h.69v3.83h-.61v-.57h-.15c-.14.43-.5.67-1.06.67-.89,0-1.28-.61-1.28-1.47Z"/>
      <path class="cls-3" d="M139.12,63.48c0-.26.15-.42.42-.42s.42.17.42.42-.15.42-.42.42-.42-.17-.42-.42ZM139.19,68.26v-3.83h.69v3.83h-.69Z"/>
      <path class="cls-3" d="M141.26,68.26c-.19-.23-.31-.49-.31-1.14v-3.96h.69v3.87c0,.68.17.96.38,1.19v.04h-.76Z"/>
      <path class="cls-3" d="M142.49,66.35c0-1.22.56-2.01,1.53-2.01.52,0,.84.22,1,.55h.15v-1.74h.69v5.1h-.61v-.5h-.15c-.13.31-.48.59-1.07.59-.98,0-1.54-.78-1.54-2.01ZM145.2,66.35c0-.86-.4-1.44-1.04-1.44s-.96.52-.96,1.44.34,1.43.96,1.43,1.04-.57,1.04-1.43Z"/>
      <path class="cls-3" d="M146.9,63.48c0-.26.15-.42.42-.42s.42.17.42.42-.15.42-.42.42-.42-.17-.42-.42ZM146.98,68.26v-3.83h.69v3.83h-.69Z"/>
      <path class="cls-3" d="M148.76,68.26v-3.83h.61v.57h.15c.14-.43.5-.67,1.06-.67.89,0,1.28.61,1.28,1.47v2.46h-.69v-2.31c0-.66-.23-1.03-.73-1.03-.63,0-.99.56-.99,1.28v2.06h-.69Z"/>
      <path class="cls-3" d="M152.82,68.53h.69c.05.29.31.56.87.56.61,0,.96-.32.96-1.08v-.43h-.15c-.14.34-.45.59-1.01.59-.94,0-1.53-.73-1.53-1.93s.57-1.91,1.52-1.91c.59,0,.88.28,1.03.59h.15v-.5h.61v3.62c0,1.02-.57,1.58-1.61,1.58s-1.46-.61-1.53-1.1ZM155.29,66.26c0-.8-.38-1.35-1.02-1.35-.6,0-.93.49-.93,1.35s.33,1.35.93,1.35c.65,0,1.03-.56,1.03-1.35Z"/>
      <path class="cls-3" d="M158.31,65.77c0-1.64.82-2.58,2.18-2.58,1.19,0,1.93.73,2.04,1.82h-.72c-.08-.76-.57-1.24-1.33-1.24-.93,0-1.44.73-1.44,2.01s.53,2.01,1.44,2.01c.8,0,1.26-.54,1.33-1.24h.72c-.11,1.09-.84,1.82-2.04,1.82-1.37,0-2.18-.95-2.18-2.58Z"/>
      <path class="cls-3" d="M163.05,66.35c0-1.22.55-2.01,1.56-2.01.57,0,.92.29,1.05.59h.15v-.5h.61v3.83h-.61v-.5h-.15c-.13.31-.48.59-1.07.59-.98,0-1.54-.78-1.54-2.01ZM165.75,66.35c0-.86-.4-1.44-1.04-1.44s-.96.52-.96,1.44.34,1.43.96,1.43,1.04-.57,1.04-1.43Z"/>
      <path class="cls-3" d="M167.52,69.54v-5.1h.61v.5h.15c.13-.31.48-.59,1.06-.59.98,0,1.54.78,1.54,2.01s-.56,2.01-1.53,2.01c-.52,0-.84-.22-1-.55h-.15v1.73h-.69ZM170.19,66.35c0-.91-.34-1.44-.96-1.44s-1.04.57-1.04,1.44.4,1.43,1.04,1.43.96-.52.96-1.43Z"/>
      <path class="cls-3" d="M171.47,66.35c0-1.22.55-2.01,1.56-2.01.57,0,.92.29,1.05.59h.15v-.5h.61v3.83h-.61v-.5h-.15c-.13.31-.48.59-1.07.59-.98,0-1.54-.78-1.54-2.01ZM174.17,66.35c0-.86-.4-1.44-1.04-1.44s-.96.52-.96,1.44.34,1.43.96,1.43,1.04-.57,1.04-1.43Z"/>
      <path class="cls-3" d="M176.71,67.76h-.15v.5h-.61v-5.1h.69v1.74h.15c.17-.33.49-.55,1-.55.97,0,1.53.79,1.53,2.01s-.56,2.01-1.54,2.01c-.59,0-.93-.29-1.06-.59ZM178.62,66.35c0-.91-.34-1.44-.96-1.44s-1.04.57-1.04,1.44.4,1.43,1.04,1.43.96-.52.96-1.43Z"/>
      <path class="cls-3" d="M180.08,63.48c0-.26.15-.42.42-.42s.42.17.42.42-.15.42-.42.42-.42-.17-.42-.42ZM180.15,68.26v-3.83h.69v3.83h-.69Z"/>
      <path class="cls-3" d="M182.22,68.26c-.19-.23-.31-.49-.31-1.14v-3.96h.69v3.87c0,.68.17.96.38,1.19v.04h-.76Z"/>
      <path class="cls-3" d="M183.65,63.48c0-.26.15-.42.42-.42s.42.17.42.42-.15.42-.42.42-.42-.17-.42-.42ZM183.73,68.26v-3.83h.69v3.83h-.69Z"/>
      <path class="cls-3" d="M185.99,68.26c-.19-.23-.31-.49-.31-1.14v-2.15h-.52v-.54h.54v-.96h.66v.96h.65v.54h-.64v2.04c0,.7.17.98.38,1.21v.04h-.76Z"/>
      <path class="cls-3" d="M187.67,63.48c0-.26.15-.42.42-.42s.42.17.42.42-.15.42-.42.42-.42-.17-.42-.42ZM187.75,68.26v-3.83h.69v3.83h-.69Z"/>
      <path class="cls-3" d="M189.27,66.35c0-1.19.59-2.01,1.71-2.01,1.05,0,1.61.7,1.61,1.99v.2h-2.65c.04.75.38,1.28,1.05,1.28.48,0,.78-.29.91-.77h.65c-.17.78-.64,1.32-1.56,1.32-1.12,0-1.72-.8-1.72-2.01ZM191.92,66.03c-.03-.74-.38-1.14-.94-1.14-.61,0-.95.42-1.03,1.14h1.97Z"/>
      <path class="cls-3" d="M193.09,67.04h.68c.04.38.31.78.92.78.45,0,.71-.21.71-.52,0-.27-.19-.45-.59-.6l-.45-.16c-.61-.23-1.09-.48-1.09-1.12s.5-1.08,1.31-1.08c.88,0,1.3.5,1.35,1.17h-.65c-.04-.32-.23-.63-.73-.63-.4,0-.62.18-.62.49s.2.46.61.61l.45.15c.61.23,1.06.48,1.06,1.12s-.49,1.12-1.39,1.12c-1.06,0-1.54-.64-1.58-1.32Z"/>
      <path class="cls-3" d="M196.51,69.22v-.04c.19-.31.34-.61.46-.89-.19-.05-.34-.18-.34-.43s.16-.43.46-.43.46.19.46.49c0,.32-.18.73-.5,1.29h-.54Z"/>
      <path class="cls-3" d="M199.96,68.26v-4.98h1.63c1.72,0,2.44.91,2.44,2.49s-.73,2.49-2.44,2.49h-1.63ZM200.68,67.66h.84c1.29,0,1.78-.62,1.78-1.89s-.49-1.89-1.78-1.89h-.84v3.78Z"/>
      <path class="cls-3" d="M204.58,66.35c0-1.19.59-2.01,1.71-2.01,1.05,0,1.61.7,1.61,1.99v.2h-2.65c.04.75.38,1.28,1.05,1.28.48,0,.78-.29.91-.77h.65c-.17.78-.64,1.32-1.56,1.32-1.12,0-1.72-.8-1.72-2.01ZM207.23,66.03c-.03-.74-.38-1.14-.94-1.14-.61,0-.95.42-1.03,1.14h1.97Z"/>
      <path class="cls-3" d="M209.4,68.26l-1.16-3.79v-.04h.69l.96,3.25h.15l.96-3.25h.64v.04l-1.16,3.79h-1.08Z"/>
      <path class="cls-3" d="M212.05,66.35c0-1.19.59-2.01,1.71-2.01,1.05,0,1.61.7,1.61,1.99v.2h-2.65c.04.75.38,1.28,1.05,1.28.48,0,.78-.29.91-.77h.65c-.17.78-.64,1.32-1.56,1.32-1.12,0-1.72-.8-1.72-2.01ZM214.69,66.03c-.03-.74-.38-1.14-.94-1.14-.61,0-.95.42-1.03,1.14h1.97Z"/>
      <path class="cls-3" d="M216.48,68.26c-.19-.23-.31-.49-.31-1.14v-3.96h.69v3.87c0,.68.17.96.38,1.19v.04h-.76Z"/>
      <path class="cls-3" d="M217.72,66.35c0-1.22.55-2.01,1.72-2.01s1.72.78,1.72,2.01-.55,2.01-1.72,2.01-1.72-.78-1.72-2.01ZM220.47,66.35c0-.89-.31-1.45-1.02-1.45s-1.02.55-1.02,1.45.31,1.45,1.02,1.45,1.02-.56,1.02-1.45Z"/>
      <path class="cls-3" d="M222.01,69.54v-5.1h.61v.5h.15c.13-.31.48-.59,1.06-.59.98,0,1.54.78,1.54,2.01s-.56,2.01-1.53,2.01c-.52,0-.84-.22-1-.55h-.15v1.73h-.69ZM224.68,66.35c0-.91-.34-1.44-.96-1.44s-1.04.57-1.04,1.44.4,1.43,1.04,1.43.96-.52.96-1.43Z"/>
      <path class="cls-3" d="M226.14,63.48c0-.26.15-.42.42-.42s.42.17.42.42-.15.42-.42.42-.42-.17-.42-.42ZM226.22,68.26v-3.83h.69v3.83h-.69Z"/>
      <path class="cls-3" d="M228,68.26v-3.83h.61v.57h.15c.14-.43.5-.67,1.06-.67.89,0,1.28.61,1.28,1.47v2.46h-.69v-2.31c0-.66-.23-1.03-.73-1.03-.62,0-.99.56-.99,1.28v2.06h-.69Z"/>
      <path class="cls-3" d="M232.06,68.53h.69c.05.29.31.56.87.56.61,0,.96-.32.96-1.08v-.43h-.15c-.14.34-.45.59-1.01.59-.94,0-1.53-.73-1.53-1.93s.57-1.91,1.52-1.91c.59,0,.88.28,1.03.59h.15v-.5h.61v3.62c0,1.02-.57,1.58-1.61,1.58-1.09,0-1.46-.61-1.53-1.1ZM234.53,66.26c0-.8-.38-1.35-1.02-1.35-.6,0-.93.49-.93,1.35s.33,1.35.93,1.35c.65,0,1.03-.56,1.03-1.35Z"/>
      <path class="cls-3" d="M237.55,65.77c0-1.64.82-2.58,2.18-2.58,1.19,0,1.93.73,2.04,1.82h-.72c-.08-.76-.57-1.24-1.33-1.24-.93,0-1.44.73-1.44,2.01s.53,2.01,1.44,2.01c.8,0,1.26-.54,1.33-1.24h.72c-.11,1.09-.84,1.82-2.04,1.82-1.37,0-2.18-.95-2.18-2.58Z"/>
      <path class="cls-3" d="M242.29,66.35c0-1.22.55-2.01,1.72-2.01s1.72.78,1.72,2.01-.55,2.01-1.72,2.01-1.72-.78-1.72-2.01ZM245.03,66.35c0-.89-.31-1.45-1.02-1.45s-1.02.55-1.02,1.45.31,1.45,1.02,1.45,1.02-.56,1.02-1.45Z"/>
      <path class="cls-3" d="M246.57,68.26v-3.83h.61v.58h.15c.11-.43.46-.68.98-.68s.89.26,1.06.68h.15c.14-.43.5-.68,1.05-.68.84,0,1.2.61,1.2,1.47v2.46h-.69v-2.31c0-.66-.2-1.03-.67-1.03-.57,0-.9.56-.9,1.28v2.06h-.69v-2.31c0-.66-.2-1.03-.67-1.03-.57,0-.9.56-.9,1.28v2.06h-.69Z"/>
      <path class="cls-3" d="M252.82,69.54v-5.1h.61v.5h.15c.13-.31.48-.59,1.06-.59.98,0,1.54.78,1.54,2.01s-.56,2.01-1.53,2.01c-.52,0-.84-.22-1-.55h-.15v1.73h-.69ZM255.5,66.35c0-.91-.34-1.44-.96-1.44s-1.04.57-1.04,1.44.4,1.43,1.04,1.43.96-.52.96-1.43Z"/>
      <path class="cls-3" d="M256.77,66.35c0-1.19.59-2.01,1.71-2.01,1.05,0,1.61.7,1.61,1.99v.2h-2.65c.04.75.38,1.28,1.05,1.28.48,0,.78-.29.91-.77h.65c-.17.78-.64,1.32-1.56,1.32-1.12,0-1.72-.8-1.72-2.01ZM259.42,66.03c-.03-.74-.38-1.14-.94-1.14-.61,0-.95.42-1.03,1.14h1.97Z"/>
      <path class="cls-3" d="M261.4,68.26c-.19-.23-.31-.49-.31-1.14v-2.15h-.52v-.54h.54v-.96h.66v.96h.65v.54h-.64v2.04c0,.7.17.98.38,1.21v.04h-.76Z"/>
      <path class="cls-3" d="M262.9,66.35c0-1.19.59-2.01,1.71-2.01,1.05,0,1.61.7,1.61,1.99v.2h-2.65c.04.75.38,1.28,1.05,1.28.48,0,.78-.29.91-.77h.65c-.17.78-.64,1.32-1.56,1.32-1.12,0-1.72-.8-1.72-2.01ZM265.54,66.03c-.03-.74-.38-1.14-.94-1.14-.61,0-.95.42-1.03,1.14h1.97Z"/>
      <path class="cls-3" d="M267.05,68.26v-3.83h.61v.57h.15c.14-.43.5-.67,1.06-.67.89,0,1.28.61,1.28,1.47v2.46h-.69v-2.31c0-.66-.23-1.03-.73-1.03-.62,0-.99.56-.99,1.28v2.06h-.69Z"/>
      <path class="cls-3" d="M270.94,66.35c0-1.22.57-2.01,1.66-2.01.89,0,1.46.52,1.58,1.44h-.67c-.08-.54-.38-.87-.89-.87-.67,0-.98.55-.98,1.45s.31,1.45.98,1.45c.52,0,.82-.33.89-.87h.67c-.14.93-.7,1.44-1.58,1.44-1.1,0-1.66-.8-1.66-2.01Z"/>
      <path class="cls-3" d="M274.88,63.48c0-.26.15-.42.42-.42s.42.17.42.42-.15.42-.42.42-.42-.17-.42-.42ZM274.96,68.26v-3.83h.69v3.83h-.69Z"/>
      <path class="cls-3" d="M276.49,66.35c0-1.19.59-2.01,1.71-2.01,1.05,0,1.61.7,1.61,1.99v.2h-2.65c.04.75.38,1.28,1.05,1.28.48,0,.78-.29.91-.77h.65c-.17.78-.64,1.32-1.56,1.32-1.12,0-1.72-.8-1.72-2.01ZM279.13,66.03c-.03-.74-.38-1.14-.94-1.14-.61,0-.95.42-1.03,1.14h1.97Z"/>
      <path class="cls-3" d="M280.31,67.04h.68c.04.38.31.78.92.78.45,0,.71-.21.71-.52,0-.27-.19-.45-.59-.6l-.45-.16c-.61-.23-1.09-.48-1.09-1.12s.5-1.08,1.31-1.08c.88,0,1.3.5,1.35,1.17h-.65c-.04-.32-.23-.63-.73-.63-.4,0-.62.18-.62.49s.2.46.61.61l.45.15c.61.23,1.06.48,1.06,1.12s-.49,1.12-1.39,1.12c-1.06,0-1.54-.64-1.58-1.32Z"/>
    </g>
    <g>
      <path class="cls-1" d="M130.61,9.76c0-5.58,2.81-8.97,7.88-8.97,4.54,0,7.17,2.77,7.48,6.66h-3.7c-.24-2.41-1.64-3.87-3.76-3.87-2.68,0-4.05,2.24-4.05,6.2s1.46,6.16,4.03,6.16c2.21,0,3.56-1.55,3.79-3.88h3.7c-.31,3.9-2.92,6.66-7.46,6.66-5.03,0-7.9-3.32-7.9-8.97Z"/>
      <path class="cls-1" d="M147.3,11.73c0-4.32,2.26-6.95,6.4-6.95s6.13,2.44,6.13,7.06v.75h-9.03c.16,2.24,1.2,3.61,2.95,3.61,1.39,0,2.24-.95,2.5-2.06h3.41c-.4,2.44-2.19,4.58-5.91,4.58-4.21,0-6.44-2.68-6.44-7ZM156.34,10.34c-.13-2.01-1-3.17-2.66-3.17s-2.66,1.04-2.88,3.17h5.54Z"/>
      <path class="cls-1" d="M162.14,18.4V5.11h3.32v1.99h.53c.53-1.33,1.53-2.33,3.67-2.33,2.95,0,4.43,1.99,4.43,5.18v8.44h-3.59v-7.84c0-1.82-.62-2.86-2.08-2.86-1.73,0-2.7,1.53-2.7,3.52v7.17h-3.59Z"/>
      <path class="cls-1" d="M179.15,18.4c-.69-.8-1.11-1.73-1.11-3.96v-6.8h-1.82v-2.52h1.86V1.79h3.52v3.32h2.15v2.52h-2.15v6.42c0,2.35.6,3.41,1.35,4.21v.13h-3.81Z"/>
      <path class="cls-1" d="M186.01,18.4V5.11h3.28v2.44h.53c.27-1.33,1.11-2.57,3.63-2.57h.71v3.23h-.97c-2.52,0-3.59,1.28-3.59,3.81v6.38h-3.59Z"/>
      <path class="cls-1" d="M194.91,11.73c0-4.32,2.26-6.95,6.4-6.95s6.13,2.44,6.13,7.06v.75h-9.03c.16,2.24,1.2,3.61,2.95,3.61,1.39,0,2.24-.95,2.5-2.06h3.41c-.4,2.44-2.19,4.58-5.91,4.58-4.21,0-6.44-2.68-6.44-7ZM203.95,10.34c-.13-2.01-1-3.17-2.66-3.17s-2.66,1.04-2.88,3.17h5.54Z"/>
      <path class="cls-1" d="M215.95,18.4V7.64h-1.86v-2.52h1.86v-.8c0-2.28,1.11-3.68,4.41-3.68.42,0,.84.02,1.26.07v2.44c-.22-.04-.53-.07-.77-.07-1.02,0-1.4.4-1.4,1.37v.66h2.17v2.52h-2.17v10.76h-3.5Z"/>
      <path class="cls-1" d="M223.04,11.76c0-4.25,2.15-6.97,6.55-6.97s6.55,2.72,6.55,6.97-2.15,6.97-6.55,6.97-6.55-2.72-6.55-6.97ZM232.43,11.76c0-3.06-.89-4.58-2.83-4.58s-2.83,1.53-2.83,4.58.89,4.58,2.83,4.58,2.83-1.53,2.83-4.58Z"/>
      <path class="cls-1" d="M238.5,18.4V5.11h3.28v2.44h.53c.27-1.33,1.11-2.57,3.63-2.57h.71v3.23h-.97c-2.52,0-3.59,1.28-3.59,3.81v6.38h-3.59Z"/>
      <path class="cls-1" d="M258.4,18.4V4.05h-5.11V1.13h13.95v2.92h-5.11v14.35h-3.72Z"/>
      <path class="cls-1" d="M268.61,18.4V5.11h3.28v2.44h.53c.27-1.33,1.11-2.57,3.63-2.57h.71v3.23h-.97c-2.52,0-3.59,1.28-3.59,3.81v6.38h-3.59Z"/>
      <path class="cls-1" d="M277.74,11.73c0-4.1,1.75-6.89,5.38-6.89,1.86,0,3.03.8,3.65,1.99h.53v-1.73h3.32v13.28h-3.32v-1.73h-.53c-.62,1.13-1.77,1.99-3.63,1.99-3.74,0-5.4-2.92-5.4-6.93ZM287.04,11.76c0-2.7-1.17-4.38-2.97-4.38-1.62,0-2.61,1.46-2.61,4.38s1,4.38,2.61,4.38c1.79,0,2.97-1.68,2.97-4.38Z"/>
      <path class="cls-1" d="M293.77,1.79c0-1.06.66-1.79,1.93-1.79s1.93.73,1.93,1.79-.66,1.79-1.93,1.79-1.93-.73-1.93-1.79ZM293.9,18.4V5.11h3.59v13.28h-3.59Z"/>
      <path class="cls-1" d="M300.77,18.4V5.11h3.32v1.99h.53c.53-1.33,1.53-2.33,3.67-2.33,2.95,0,4.43,1.99,4.43,5.18v8.44h-3.59v-7.84c0-1.82-.62-2.86-2.08-2.86-1.73,0-2.7,1.53-2.7,3.52v7.17h-3.59Z"/>
      <path class="cls-1" d="M315.69,1.79c0-1.06.66-1.79,1.93-1.79s1.93.73,1.93,1.79-.67,1.79-1.93,1.79-1.93-.73-1.93-1.79ZM315.82,18.4V5.11h3.59v13.28h-3.59Z"/>
      <path class="cls-1" d="M322.69,18.4V5.11h3.32v1.99h.53c.53-1.33,1.53-2.33,3.67-2.33,2.95,0,4.43,1.99,4.43,5.18v8.44h-3.59v-7.84c0-1.82-.62-2.86-2.08-2.86-1.73,0-2.7,1.53-2.7,3.52v7.17h-3.59Z"/>
      <path class="cls-1" d="M337.48,18.93h3.5c.13.86.73,1.71,2.35,1.71,1.84,0,2.75-1.13,2.75-3.1v-1.57h-.53c-.42,1.28-1.53,2.04-3.37,2.04-3.45,0-5.31-2.59-5.31-6.62s1.77-6.6,5.38-6.6c1.84,0,2.9.75,3.43,1.93h.53v-1.59h3.32v12.29c0,3.65-1.97,5.76-6.16,5.76-4.96,0-5.76-2.83-5.89-4.23ZM345.94,11.38c0-2.5-1.04-4.07-2.79-4.07-1.62,0-2.66,1.35-2.66,4.07s1.04,4.1,2.66,4.1c1.75,0,2.79-1.59,2.79-4.1Z"/>
      <path class="cls-1" d="M131,41.88c0-2.19,1.46-3.61,3.45-4.54v-.53c-1-.89-1.79-2.04-1.79-3.63,0-2.32,1.66-4.32,5.2-4.32,3.3,0,4.96,1.64,4.96,3.79s-1.73,3.39-3.63,4.16v.53l2.28,2.17c.35.35.64.71.84,1.06h.53c.44-1.08.69-2.21.82-3.32h4.54v2.52h-2.5c-.24.84-.64,1.62-1.2,2.46l4.16,4.03v.13h-4.45l-1.77-1.95h-.53c-1,1.28-2.46,2.26-4.96,2.26-3.76,0-5.96-2.21-5.96-4.83ZM140.57,42.81l-4.47-4.27c-1.02.64-1.73,1.46-1.73,2.63,0,1.64,1.37,2.79,3.34,2.79,1.26,0,2.15-.42,2.86-1.15ZM139.68,32.89c0-.97-.55-1.68-1.82-1.68-1.35,0-1.97.78-1.97,1.82s.64,1.79,1.44,2.5c1.31-.62,2.35-1.39,2.35-2.63Z"/>
      <path class="cls-1" d="M155.94,46.4v-17.27h6.16c6.13,0,8.77,3.17,8.77,8.63s-2.63,8.63-8.77,8.63h-6.16ZM159.66,43.52h2.21c3.39,0,5.14-1.33,5.14-5.76s-1.75-5.76-5.14-5.76h-2.21v11.51Z"/>
      <path class="cls-1" d="M172.28,39.73c0-4.32,2.26-6.95,6.4-6.95s6.13,2.44,6.13,7.06v.75h-9.03c.16,2.24,1.2,3.61,2.95,3.61,1.39,0,2.24-.95,2.5-2.06h3.41c-.4,2.44-2.19,4.58-5.91,4.58-4.21,0-6.44-2.68-6.44-7ZM181.32,38.34c-.13-2.01-1-3.17-2.66-3.17s-2.66,1.04-2.88,3.17h5.54Z"/>
      <path class="cls-1" d="M189.36,46.4l-3.83-13.15v-.13h3.63l2.86,10.36h.53l2.88-10.36h3.3v.13l-3.83,13.15h-5.54Z"/>
      <path class="cls-1" d="M199.74,39.73c0-4.32,2.26-6.95,6.4-6.95s6.13,2.44,6.13,7.06v.75h-9.03c.16,2.24,1.2,3.61,2.95,3.61,1.39,0,2.24-.95,2.5-2.06h3.41c-.4,2.44-2.19,4.58-5.91,4.58-4.21,0-6.44-2.68-6.44-7ZM208.78,38.34c-.13-2.01-1-3.17-2.66-3.17s-2.66,1.04-2.88,3.17h5.54Z"/>
      <path class="cls-1" d="M215.66,46.4c-.82-.93-1.13-2.01-1.13-3.96v-13.75h3.59v13.37c0,2.24.55,3.34,1.37,4.21v.13h-3.83Z"/>
      <path class="cls-1" d="M220.65,39.76c0-4.25,2.15-6.97,6.55-6.97s6.55,2.72,6.55,6.97-2.15,6.97-6.55,6.97-6.55-2.72-6.55-6.97ZM230.03,39.76c0-3.06-.89-4.58-2.83-4.58s-2.83,1.53-2.83,4.58.89,4.58,2.83,4.58,2.83-1.53,2.83-4.58Z"/>
      <path class="cls-1" d="M236.15,50.83v-17.71h3.32v1.73h.53c.62-1.13,1.75-1.99,3.72-1.99,3.63,0,5.31,2.92,5.31,6.93s-1.77,6.89-5.31,6.89c-1.73,0-2.81-.66-3.45-1.73h-.53v5.89h-3.59ZM245.31,39.76c0-2.92-1-4.38-2.61-4.38-1.79,0-2.97,1.68-2.97,4.38s1.17,4.38,2.97,4.38c1.62,0,2.61-1.46,2.61-4.38Z"/>
      <path class="cls-1" d="M251.43,46.4v-13.28h3.32v1.99h.53c.49-1.26,1.51-2.33,3.56-2.33,1.84,0,3.06.84,3.7,2.33h.53c.53-1.33,1.59-2.33,3.57-2.33,2.86,0,4.27,1.99,4.27,5.18v8.44h-3.59v-7.84c0-1.79-.55-2.86-1.88-2.86-1.62,0-2.48,1.55-2.48,3.52v7.17h-3.59v-7.84c0-1.79-.55-2.86-1.88-2.86-1.59,0-2.48,1.55-2.48,3.52v7.17h-3.59Z"/>
      <path class="cls-1" d="M273.13,39.73c0-4.32,2.26-6.95,6.4-6.95s6.13,2.44,6.13,7.06v.75h-9.03c.15,2.24,1.2,3.61,2.94,3.61,1.39,0,2.24-.95,2.5-2.06h3.41c-.4,2.44-2.19,4.58-5.91,4.58-4.21,0-6.44-2.68-6.44-7ZM282.16,38.34c-.13-2.01-1-3.17-2.66-3.17s-2.66,1.04-2.88,3.17h5.54Z"/>
      <path class="cls-1" d="M287.97,46.4v-13.28h3.32v1.99h.53c.53-1.33,1.53-2.33,3.67-2.33,2.95,0,4.43,1.99,4.43,5.18v8.44h-3.59v-7.84c0-1.82-.62-2.86-2.08-2.86-1.73,0-2.7,1.53-2.7,3.52v7.17h-3.59Z"/>
      <path class="cls-1" d="M304.97,46.4c-.69-.8-1.11-1.73-1.11-3.96v-6.8h-1.82v-2.52h1.86v-3.32h3.52v3.32h2.15v2.52h-2.15v6.42c0,2.35.6,3.41,1.35,4.21v.13h-3.81Z"/>
    </g>
    <line class="cls-2" x1="130.61" y1="57.82" x2="295.7" y2="57.82"/>
    <path class="cls-4" d="M83.01,1.5h-21.01l-6.58,13.26-6.58-13.26h-21.01C12.48,1.5,0,13.99,0,29.34v.66c0,15.35,12.48,27.83,27.83,27.83h19.1v-20.26h-19.1c-4.17,0-7.57-3.39-7.57-7.57v-.66c0-4.18,3.39-7.57,7.57-7.57h55.18c4.17,0,7.57,3.4,7.57,7.57v.66c0,4.17-3.39,7.57-7.57,7.57h-19.1v20.26h19.1c15.35,0,27.83-12.48,27.83-27.83v-.66c0-15.35-12.48-27.84-27.83-27.84ZM27.83,17.45c-6.55,0-11.88,5.33-11.88,11.89v.66c0,6.55,5.33,11.88,11.88,11.88h14.78v11.63h-14.78c-12.96,0-23.51-10.55-23.51-23.51v-.66c0-12.97,10.55-23.52,23.51-23.52h18.33l5.77,11.63h-24.1ZM106.52,29.99c0,12.96-10.55,23.51-23.51,23.51h-14.78v-11.63h14.78c6.55,0,11.88-5.33,11.88-11.88v-.66c0-6.56-5.33-11.89-11.88-11.89h-24.1l5.77-11.63h18.33c12.96,0,23.51,10.55,23.51,23.52v.66Z"/>
  </g>
</svg>